HIERARCHY
ROOT mixamorig:Hips
{
	OFFSET -0.000008 104.274872 1.554316
	CHANNELS 6 Xposition Yposition Zposition Xrotation Yrotation Zrotation
	JOINT mixamorig:Spine
	{
		OFFSET -0.000005 10.181595 0.131519
		CHANNELS 6 Xposition Yposition Zposition Xrotation Yrotation Zrotation
		JOINT mixamorig:Spine1
		{
			OFFSET -0.000000 9.893959 -1.470707
			CHANNELS 6 Xposition Yposition Zposition Xrotation Yrotation Zrotation
			JOINT mixamorig:Spine2
			{
				OFFSET -0.000000 9.220757 -1.370641
				CHANNELS 6 Xposition Yposition Zposition Xrotation Yrotation Zrotation
				JOINT mixamorig:Neck
				{
					OFFSET 0.000001 16.740417 -2.049036
					CHANNELS 6 Xposition Yposition Zposition Xrotation Yrotation Zrotation
					JOINT mixamorig:Head
					{
						OFFSET 0.000000 9.617874 1.685006
						CHANNELS 6 Xposition Yposition Zposition Xrotation Yrotation Zrotation
						JOINT mixamorig:HeadTop_End
						{
							OFFSET 0.000002 22.037354 7.501101
							CHANNELS 6 Xposition Yposition Zposition Xrotation Yrotation Zrotation
							End Site
							{
								OFFSET 0.000168 2310.654297 -282.823242
							}
						}
					}
				}
				JOINT mixamorig:RightShoulder
				{
					OFFSET -4.569970 11.014908 -2.160885
					CHANNELS 6 Xposition Yposition Zposition Xrotation Yrotation Zrotation
					JOINT mixamorig:RightArm
					{
						OFFSET -10.592851 -0.524811 -2.232101
						CHANNELS 6 Xposition Yposition Zposition Xrotation Yrotation Zrotation
						JOINT mixamorig:RightForeArm
						{
							OFFSET -27.841511 0.000031 -0.000004
							CHANNELS 6 Xposition Yposition Zposition Xrotation Yrotation Zrotation
							JOINT mixamorig:RightHand
							{
								OFFSET -28.328831 -0.000015 0.000015
								CHANNELS 6 Xposition Yposition Zposition Xrotation Yrotation Zrotation
								JOINT mixamorig:RightHandThumb1
								{
									OFFSET -2.464806 -1.573990 2.681852
									CHANNELS 6 Xposition Yposition Zposition Xrotation Yrotation Zrotation
									JOINT mixamorig:RightHandThumb2
									{
										OFFSET -3.215179 -1.872803 1.924282
										CHANNELS 6 Xposition Yposition Zposition Xrotation Yrotation Zrotation
										JOINT mixamorig:RightHandThumb3
										{
											OFFSET -2.654831 -1.527969 1.512609
											CHANNELS 6 Xposition Yposition Zposition Xrotation Yrotation Zrotation
											JOINT mixamorig:RightHandThumb4
											{
												OFFSET -2.018814 -1.152008 1.108052
												CHANNELS 6 Xposition Yposition Zposition Xrotation Yrotation Zrotation
												End Site
												{
													OFFSET -188.809540 -114.533607 132.431396
												}
											}
										}
									}
								}
								JOINT mixamorig:RightHandIndex1
								{
									OFFSET -9.108284 -0.517868 2.259835
									CHANNELS 6 Xposition Yposition Zposition Xrotation Yrotation Zrotation
									JOINT mixamorig:RightHandIndex2
									{
										OFFSET -3.699989 0.000000 0.001215
										CHANNELS 6 Xposition Yposition Zposition Xrotation Yrotation Zrotation
										JOINT mixamorig:RightHandIndex3
										{
											OFFSET -2.850006 0.000031 -0.000522
											CHANNELS 6 Xposition Yposition Zposition Xrotation Yrotation Zrotation
											JOINT mixamorig:RightHandIndex4
											{
												OFFSET -2.772186 -0.000015 -0.000020
												CHANNELS 6 Xposition Yposition Zposition Xrotation Yrotation Zrotation
												End Site
												{
													OFFSET -277.218445 0.000000 -0.050231
												}
											}
										}
									}
								}
								JOINT mixamorig:RightHandMiddle1
								{
									OFFSET -9.532516 -0.000031 -0.000023
									CHANNELS 6 Xposition Yposition Zposition Xrotation Yrotation Zrotation
									JOINT mixamorig:RightHandMiddle2
									{
										OFFSET -3.700005 -0.000015 0.003713
										CHANNELS 6 Xposition Yposition Zposition Xrotation Yrotation Zrotation
										JOINT mixamorig:RightHandMiddle3
										{
											OFFSET -2.949974 0.000015 -0.002054
											CHANNELS 6 Xposition Yposition Zposition Xrotation Yrotation Zrotation
											JOINT mixamorig:RightHandMiddle4
											{
												OFFSET -2.946640 0.000000 -0.000156
												CHANNELS 6 Xposition Yposition Zposition Xrotation Yrotation Zrotation
												End Site
												{
													OFFSET -294.664337 0.000000 -0.113670
												}
											}
										}
									}
								}
								JOINT mixamorig:RightHandRing1
								{
									OFFSET -9.103600 -0.043076 -1.865134
									CHANNELS 6 Xposition Yposition Zposition Xrotation Yrotation Zrotation
									JOINT mixamorig:RightHandRing2
									{
										OFFSET -3.379288 0.000000 -0.001055
										CHANNELS 6 Xposition Yposition Zposition Xrotation Yrotation Zrotation
										JOINT mixamorig:RightHandRing3
										{
											OFFSET -2.889687 -0.000015 0.000379
											CHANNELS 6 Xposition Yposition Zposition Xrotation Yrotation Zrotation
											JOINT mixamorig:RightHandRing4
											{
												OFFSET -2.638809 -0.000015 0.000941
												CHANNELS 6 Xposition Yposition Zposition Xrotation Yrotation Zrotation
												End Site
												{
													OFFSET -263.880371 0.000000 0.516020
												}
											}
										}
									}
								}
								JOINT mixamorig:RightHandPinky1
								{
									OFFSET -8.076683 -0.486710 -3.806280
									CHANNELS 6 Xposition Yposition Zposition Xrotation Yrotation Zrotation
									JOINT mixamorig:RightHandPinky2
									{
										OFFSET -3.600014 -0.000015 -0.003747
										CHANNELS 6 Xposition Yposition Zposition Xrotation Yrotation Zrotation
										JOINT mixamorig:RightHandPinky3
										{
											OFFSET -2.099983 0.000000 -0.005739
											CHANNELS 6 Xposition Yposition Zposition Xrotation Yrotation Zrotation
											JOINT mixamorig:RightHandPinky4
											{
												OFFSET -2.115768 -0.000031 -0.003680
												CHANNELS 6 Xposition Yposition Zposition Xrotation Yrotation Zrotation
												End Site
												{
													OFFSET -211.577087 0.000000 -0.350686
												}
											}
										}
									}
								}
							}
						}
					}
				}
				JOINT mixamorig:LeftShoulder
				{
					OFFSET 4.570447 11.014725 -2.160855
					CHANNELS 6 Xposition Yposition Zposition Xrotation Yrotation Zrotation
					JOINT mixamorig:LeftArm
					{
						OFFSET 10.592371 -0.524597 -2.232119
						CHANNELS 6 Xposition Yposition Zposition Xrotation Yrotation Zrotation
						JOINT mixamorig:LeftForeArm
						{
							OFFSET 27.841532 -0.000031 0.000026
							CHANNELS 6 Xposition Yposition Zposition Xrotation Yrotation Zrotation
							JOINT mixamorig:LeftHand
							{
								OFFSET 28.328846 -0.000061 0.000022
								CHANNELS 6 Xposition Yposition Zposition Xrotation Yrotation Zrotation
								JOINT mixamorig:LeftHandThumb1
								{
									OFFSET 2.466141 -1.576172 2.681732
									CHANNELS 6 Xposition Yposition Zposition Xrotation Yrotation Zrotation
									JOINT mixamorig:LeftHandThumb2
									{
										OFFSET 3.217812 -1.872070 1.916482
										CHANNELS 6 Xposition Yposition Zposition Xrotation Yrotation Zrotation
										JOINT mixamorig:LeftHandThumb3
										{
											OFFSET 2.656029 -1.528778 1.514513
											CHANNELS 6 Xposition Yposition Zposition Xrotation Yrotation Zrotation
											JOINT mixamorig:LeftHandThumb4
											{
												OFFSET 2.020889 -1.154053 1.115139
												CHANNELS 6 Xposition Yposition Zposition Xrotation Yrotation Zrotation
												End Site
												{
													OFFSET 190.885437 -115.081749 130.048782
												}
											}
										}
									}
								}
								JOINT mixamorig:LeftHandIndex1
								{
									OFFSET 9.109314 -0.518021 2.259871
									CHANNELS 6 Xposition Yposition Zposition Xrotation Yrotation Zrotation
									JOINT mixamorig:LeftHandIndex2
									{
										OFFSET 3.699989 0.000000 -0.000322
										CHANNELS 6 Xposition Yposition Zposition Xrotation Yrotation Zrotation
										JOINT mixamorig:LeftHandIndex3
										{
											OFFSET 2.850006 0.000000 0.000352
											CHANNELS 6 Xposition Yposition Zposition Xrotation Yrotation Zrotation
											JOINT mixamorig:LeftHandIndex4
											{
												OFFSET 2.774864 -0.000031 -0.000027
												CHANNELS 6 Xposition Yposition Zposition Xrotation Yrotation Zrotation
												End Site
												{
													OFFSET 277.486267 0.000000 -0.009857
												}
											}
										}
									}
								}
								JOINT mixamorig:LeftHandMiddle1
								{
									OFFSET 9.533394 0.000061 0.000044
									CHANNELS 6 Xposition Yposition Zposition Xrotation Yrotation Zrotation
									JOINT mixamorig:LeftHandMiddle2
									{
										OFFSET 3.699989 -0.000015 -0.000231
										CHANNELS 6 Xposition Yposition Zposition Xrotation Yrotation Zrotation
										JOINT mixamorig:LeftHandMiddle3
										{
											OFFSET 2.949997 -0.000015 -0.000059
											CHANNELS 6 Xposition Yposition Zposition Xrotation Yrotation Zrotation
											JOINT mixamorig:LeftHandMiddle4
											{
												OFFSET 2.952896 0.000031 0.000063
												CHANNELS 6 Xposition Yposition Zposition Xrotation Yrotation Zrotation
												End Site
												{
													OFFSET 295.289337 0.000000 0.022810
												}
											}
										}
									}
								}
								JOINT mixamorig:LeftHandRing1
								{
									OFFSET 9.104523 -0.042999 -1.865074
									CHANNELS 6 Xposition Yposition Zposition Xrotation Yrotation Zrotation
									JOINT mixamorig:LeftHandRing2
									{
										OFFSET 3.150009 -0.000031 0.000043
										CHANNELS 6 Xposition Yposition Zposition Xrotation Yrotation Zrotation
										JOINT mixamorig:LeftHandRing3
										{
											OFFSET 2.949982 -0.000015 0.000040
											CHANNELS 6 Xposition Yposition Zposition Xrotation Yrotation Zrotation
											JOINT mixamorig:LeftHandRing4
											{
												OFFSET 2.644348 0.000000 0.000057
												CHANNELS 6 Xposition Yposition Zposition Xrotation Yrotation Zrotation
												End Site
												{
													OFFSET 264.434631 0.000000 0.012105
												}
											}
										}
									}
								}
								JOINT mixamorig:LeftHandPinky1
								{
									OFFSET 8.077789 -0.486847 -3.806259
									CHANNELS 6 Xposition Yposition Zposition Xrotation Yrotation Zrotation
									JOINT mixamorig:LeftHandPinky2
									{
										OFFSET 3.599953 0.000031 0.014727
										CHANNELS 6 Xposition Yposition Zposition Xrotation Yrotation Zrotation
										JOINT mixamorig:LeftHandPinky3
										{
											OFFSET 2.100021 0.000015 0.007705
											CHANNELS 6 Xposition Yposition Zposition Xrotation Yrotation Zrotation
											JOINT mixamorig:LeftHandPinky4
											{
												OFFSET 2.125504 0.000031 0.007517
												CHANNELS 6 Xposition Yposition Zposition Xrotation Yrotation Zrotation
												End Site
												{
													OFFSET 212.550781 0.000000 0.625752
												}
											}
										}
									}
								}
							}
						}
					}
				}
			}
		}
	}
	JOINT mixamorig:RightUpLeg
	{
		OFFSET -8.207787 -6.751648 -1.599560
		CHANNELS 6 Xposition Yposition Zposition Xrotation Yrotation Zrotation
		JOINT mixamorig:RightLeg
		{
			OFFSET -0.000002 -44.370117 0.345942
			CHANNELS 6 Xposition Yposition Zposition Xrotation Yrotation Zrotation
			JOINT mixamorig:RightFoot
			{
				OFFSET 0.000003 -44.423679 -3.043532
				CHANNELS 6 Xposition Yposition Zposition Xrotation Yrotation Zrotation
				JOINT mixamorig:RightToeBase
				{
					OFFSET -0.000002 -8.728671 10.710558
					CHANNELS 6 Xposition Yposition Zposition Xrotation Yrotation Zrotation
					JOINT mixamorig:RightToe_End
					{
						OFFSET -0.000001 -0.000679 9.278119
						CHANNELS 6 Xposition Yposition Zposition Xrotation Yrotation Zrotation
						End Site
						{
							OFFSET 0.000000 -0.067690 927.812134
						}
					}
				}
			}
		}
	}
	JOINT mixamorig:LeftUpLeg
	{
		OFFSET 8.207793 -6.751686 -1.599556
		CHANNELS 6 Xposition Yposition Zposition Xrotation Yrotation Zrotation
		JOINT mixamorig:LeftLeg
		{
			OFFSET -0.000004 -44.370014 0.346954
			CHANNELS 6 Xposition Yposition Zposition Xrotation Yrotation Zrotation
			JOINT mixamorig:LeftFoot
			{
				OFFSET -0.000001 -44.423672 -3.044401
				CHANNELS 6 Xposition Yposition Zposition Xrotation Yrotation Zrotation
				JOINT mixamorig:LeftToeBase
				{
					OFFSET -0.000002 -8.728669 10.710558
					CHANNELS 6 Xposition Yposition Zposition Xrotation Yrotation Zrotation
					JOINT mixamorig:LeftToe_End
					{
						OFFSET -0.000003 -0.000679 9.278133
						CHANNELS 6 Xposition Yposition Zposition Xrotation Yrotation Zrotation
						End Site
						{
							OFFSET 0.000000 -0.068021 927.813477
						}
					}
				}
			}
		}
	}
}
MOTION
Frames: 3
Frame Time: 0.033333
0.000006 104.270477 1.554256 0.000010 0.000003 -0.000113 -0.000005 10.181587 0.131522 0.000001 -0.000003 0.000084 -0.000000 9.893967 -1.470711 0.000001 0.000000 -0.000000 -0.000000 9.220802 -1.370642 0.000000 -0.000000 -0.000000 0.000001 16.740433 -2.049030 0.000000 -0.000000 -0.000000 0.000000 9.617859 1.685014 0.000000 0.000000 0.000000 0.000002 22.037384 7.501101 0.000000 -0.000000 0.000000 -4.569968 11.014880 -2.160881 0.000008 0.000001 -0.000038 -10.592717 -0.524837 -2.231699 103.644979 77.498134 -91.173525 -27.841400 0.000047 0.000627 19.582861 118.423910 -32.305862 -28.328836 0.000006 0.000024 -0.000322 -0.000046 0.000007 -2.464821 -1.573639 2.682204 -37.570043 -215.890723 -120.243185 -3.214690 -1.872649 1.924731 136.611693 -24.642713 174.435054 -2.654424 -1.527894 1.513093 142.863706 -27.497245 183.555993 -2.018831 -1.152006 1.108063 -0.000000 -0.000004 0.000004 -9.108307 -0.517830 2.260394 161.659130 18.612660 -91.088796 -3.699978 0.000008 0.001791 160.465268 19.360441 -89.359153 -2.850023 0.000065 0.000041 161.250439 15.323239 -78.342038 -2.772166 -0.000018 -0.000017 0.000003 0.000000 -0.000002 -9.532545 0.000026 0.000525 159.499042 15.277974 -73.843443 -3.700054 0.000065 0.004260 157.730952 14.439734 -65.061411 -2.950061 0.000130 -0.001528 156.643039 10.183560 -46.604157 -2.946642 0.000005 -0.000163 -0.000001 -0.000000 0.000001 -9.103637 -0.042999 -1.864590 158.387948 15.695604 -71.455943 -3.379323 0.000120 -0.000535 156.958075 7.856986 -37.327199 -2.889752 0.000219 0.000911 156.006807 3.527681 -16.708782 -2.638816 0.000000 0.000924 0.000001 0.000001 0.000003 -8.076710 -0.486588 -3.805737 154.797618 16.251441 -64.502401 -3.600046 0.000170 -0.003234 153.673164 5.740618 -22.646843 -2.099999 0.000209 -0.005246 153.232862 1.882445 -7.004258 -2.115777 -0.000026 -0.003675 0.000001 -0.000002 -0.000005 4.570446 11.014691 -2.160851 -0.000018 0.000010 -0.000021 10.592465 -0.524605 -2.232308 -26.337881 -76.545349 -20.918247 27.841835 -0.000036 -0.000108 191.276292 -66.625674 197.086092 28.328842 -0.000043 0.000021 0.000021 -0.000088 -0.000001 2.465821 -1.575962 2.681787 -59.925737 188.970352 69.479505 3.217783 -1.871760 1.916347 -211.210459 -30.392419 360.146094 2.656090 -1.528565 1.514427 -31.447588 207.319382 209.563386 2.020903 -1.154073 1.115143 -0.000001 -0.000001 -0.000003 9.109383 -0.517841 2.259747 -260.209853 -18.110662 21.415920 3.700060 0.000187 -0.000455 -261.262549 -18.728765 21.778934 2.850069 0.000232 0.000230 -266.696156 -14.463904 15.311630 2.774880 -0.000030 -0.000032 -0.000001 -0.000000 -0.000000 9.533478 0.000229 -0.000104 -260.515163 -14.904192 17.551636 3.700054 0.000213 -0.000347 -262.110121 -12.239168 14.032262 2.950066 0.000170 -0.000201 -265.965162 -12.899540 13.835835 2.952865 -0.000015 0.000059 -0.000002 0.000000 0.000000 9.104584 -0.042802 -1.865211 -257.938351 -13.692831 16.887943 3.150040 0.000233 -0.000094 -263.008045 -8.686961 9.814202 2.950023 0.000221 -0.000109 -263.894686 -8.672798 9.647442 2.644318 0.000032 0.000063 0.000001 -0.000000 -0.000000 8.077853 -0.486668 -3.806395 -258.589131 -16.958643 21.364620 3.600003 0.000266 0.014558 -258.123804 -9.744679 12.594412 2.100023 0.000230 0.007553 -257.690579 -7.472381 9.838171 2.125505 -0.000001 0.007530 0.000007 0.000000 -0.000001 -8.207786 -6.751667 -1.599560 -0.077001 -0.000003 0.000080 -0.000002 -44.370110 0.345938 0.153719 -0.000000 -0.000000 0.000000 -44.423679 -3.043532 -0.076700 0.000000 -0.000002 -0.000006 -8.728667 10.710559 -0.000009 -0.000000 -0.000000 -0.000001 -0.000679 9.278123 0.000000 -0.000000 -0.000000 8.207792 -6.751710 -1.599556 -0.074518 -0.000003 0.000081 -0.000002 -44.370014 0.346960 0.148822 0.000002 0.000000 -0.000001 -44.423664 -3.044403 -0.074314 0.000000 -0.000002 -0.000004 -8.728671 10.710558 0.000007 -0.000000 -0.000000 0.000000 -0.000680 9.278137 -0.000000 0.000000 -0.000001 
0.000006 104.270477 1.554256 0.000010 0.000003 -0.000113 -0.000005 10.181587 0.131522 0.000001 -0.000003 0.000084 -0.000000 9.893967 -1.470711 0.000001 0.000000 -0.000000 -0.000000 9.220802 -1.370642 0.000000 -0.000000 -0.000000 0.000001 16.740433 -2.049030 0.000000 -0.000000 -0.000000 0.000000 9.617859 1.685014 0.000000 0.000000 0.000000 0.000002 22.037384 7.501101 0.000000 -0.000000 0.000000 -4.569968 11.014880 -2.160881 0.000008 0.000001 -0.000038 -10.592710 -0.524839 -2.231695 108.325270 78.134823 -96.679921 -27.841400 0.000012 0.000631 16.763670 116.977358 -27.027847 -28.328835 0.000005 0.000022 -0.000322 -0.000045 0.000006 -2.464582 -1.573900 2.682451 -29.295108 -176.673662 50.480825 -3.214731 -1.872610 1.924734 136.563513 -19.272965 175.030223 -2.654411 -1.527888 1.513107 141.528514 -25.714593 181.158200 -2.018841 -1.152004 1.108056 -0.000001 -0.000002 0.000002 -9.108285 -0.517847 2.260393 161.856482 21.396788 -99.807997 -3.699964 0.000014 0.001776 158.535562 20.761345 -87.940373 -2.850058 0.000062 0.000036 159.618830 15.605109 -74.630888 -2.772178 -0.000017 -0.000010 0.000001 -0.000000 -0.000000 -9.532532 -0.000027 0.000531 160.155164 19.316385 -89.089620 -3.700043 0.000028 0.004274 158.832033 15.945582 -73.226588 -2.950049 0.000101 -0.001529 160.059199 10.803828 -56.511397 -2.946622 0.000001 -0.000166 -0.000000 -0.000001 -0.000001 -9.103642 -0.043039 -1.864579 159.735489 19.228217 -86.728274 -3.379332 0.000104 -0.000500 157.460026 8.330941 -40.243461 -2.889734 0.000230 0.000910 157.402351 2.903199 -14.684668 -2.638802 -0.000016 0.000940 -0.000003 0.000000 0.000000 -8.076667 -0.486655 -3.805720 160.277233 17.779816 -83.235397 -3.600055 0.000126 -0.003212 158.051561 6.591392 -31.159077 -2.100004 0.000210 -0.005230 157.283615 1.816704 -7.958855 -2.115772 -0.000026 -0.003665 0.000003 -0.000004 0.000001 4.570446 11.014691 -2.160851 -0.000018 0.000010 -0.000021 10.592471 -0.524611 -2.232313 -26.763161 -78.471565 -21.987620 27.841829 -0.000004 -0.000131 183.341375 -72.147076 184.585575 28.328833 -0.000044 0.000021 0.000020 -0.000089 -0.000000 2.466171 -1.576149 2.681877 -76.237745 232.077943 -71.428021 3.217824 -1.871978 1.916584 -314.906336 -50.993998 401.565727 2.656065 -1.528792 1.514591 -148.071138 226.138725 209.132251 2.020892 -1.154077 1.115152 0.000001 0.000000 -0.000001 9.109340 -0.518033 2.259813 -334.088868 -18.170190 4.209645 3.700013 0.000026 -0.000401 -330.992361 -16.830269 4.389022 2.850010 0.000024 0.000269 -332.531202 -12.024207 2.948636 2.774870 -0.000029 -0.000031 -0.000000 -0.000001 0.000004 9.533423 0.000033 -0.000017 -331.893126 -17.301539 4.359101 3.700015 0.000021 -0.000299 -329.273694 -12.368614 3.409701 2.950021 0.000014 -0.000142 -329.993978 -8.325569 2.235794 2.952871 -0.000019 0.000052 0.000000 -0.000002 0.000001 9.104550 -0.043024 -1.865142 -331.066209 -16.853459 4.378350 3.150014 0.000052 -0.000044 -328.163105 -7.299223 2.084907 2.949990 0.000031 -0.000039 -328.706078 -2.514106 0.704729 2.644319 0.000016 0.000041 0.000001 -0.000001 -0.000000 8.077814 -0.486857 -3.806330 -331.744337 -15.258554 4.044887 3.599977 0.000034 0.014632 -328.144062 -5.567552 1.732443 2.100006 0.000041 0.007600 -327.259389 -1.256558 0.493067 2.125499 0.000001 0.007519 0.000000 0.000000 -0.000001 -8.207786 -6.751667 -1.599560 -0.077001 -0.000003 0.000080 -0.000002 -44.370110 0.345938 0.153719 -0.000000 -0.000000 0.000000 -44.423679 -3.043532 -0.076700 0.000000 -0.000002 -0.000006 -8.728667 10.710559 -0.000009 -0.000000 -0.000000 -0.000001 -0.000679 9.278123 0.000000 -0.000000 -0.000000 8.207792 -6.751710 -1.599556 -0.074518 -0.000003 0.000081 -0.000002 -44.370014 0.346960 0.148822 0.000002 0.000000 -0.000001 -44.423664 -3.044403 -0.074314 0.000000 -0.000002 -0.000004 -8.728671 10.710558 0.000007 -0.000000 -0.000000 0.000000 -0.000680 9.278137 -0.000000 0.000000 -0.000001 
0.000006 104.270477 1.554256 0.000010 0.000003 -0.000113 -0.000005 10.181587 0.131522 0.000001 -0.000003 0.000084 -0.000000 9.893967 -1.470711 0.000001 0.000000 -0.000000 -0.000000 9.220802 -1.370642 0.000000 -0.000000 -0.000000 0.000001 16.740433 -2.049030 0.000000 -0.000000 -0.000000 0.000000 9.617859 1.685014 0.000000 0.000000 0.000000 0.000002 22.037384 7.501101 0.000000 -0.000000 0.000000 -4.569968 11.014880 -2.160881 0.000008 0.000001 -0.000038 -10.592709 -0.524847 -2.231693 108.040697 78.607404 -96.861597 -27.841391 0.000038 0.000630 14.121596 117.785957 -23.200100 -28.328838 0.000023 0.000025 -0.000325 -0.000044 0.000008 -2.464829 -1.573632 2.682228 -34.561573 -216.887562 -125.592330 -3.214711 -1.872637 1.924718 136.443984 -23.950408 174.144129 -2.654417 -1.527925 1.513128 145.560101 -26.906215 189.317817 -2.018835 -1.151998 1.108073 -0.000006 0.000000 0.000005 -9.108219 -0.517869 2.260422 169.193690 25.484701 -134.803906 -3.699920 -0.000028 0.001788 164.015737 25.116829 -115.450701 -2.850048 0.000050 0.000024 161.981980 19.451824 -94.456810 -2.772152 -0.000001 -0.000023 0.000003 0.000000 -0.000001 -9.532459 -0.000058 0.000545 166.845443 20.898627 -116.696391 -3.699957 -0.000020 0.004287 164.731841 20.341186 -105.973848 -2.950030 0.000027 -0.001500 163.525042 14.848618 -83.937540 -2.946617 0.000000 -0.000156 -0.000005 -0.000001 0.000000 -9.103544 -0.043075 -1.864552 166.355486 21.722887 -115.894308 -3.379311 0.000028 -0.000505 161.462257 12.310837 -67.023260 -2.889766 0.000134 0.000918 159.146317 6.696910 -35.543567 -2.638793 0.000016 0.000941 -0.000004 0.000001 -0.000000 -8.076609 -0.486669 -3.805696 166.338588 22.595837 -117.404586 -3.600015 0.000015 -0.003200 161.451069 9.767674 -52.952083 -2.100035 0.000134 -0.005216 157.865302 5.281382 -25.334836 -2.115773 -0.000031 -0.003683 -0.000001 0.000001 -0.000001 4.570446 11.014691 -2.160851 -0.000018 0.000010 -0.000021 10.592485 -0.524605 -2.232331 -3.074549 -79.777853 -2.569796 27.841841 0.000002 -0.000152 166.041448 -75.799971 162.126725 28.328838 -0.000043 0.000020 0.000020 -0.000088 0.000000 2.465828 -1.575950 2.681745 -61.938976 190.346458 81.462382 3.217785 -1.871760 1.916371 -216.020360 -29.968012 359.674237 2.656088 -1.528621 1.514430 -38.938888 207.925534 218.073802 2.020879 -1.154063 1.115142 -0.000000 0.000004 0.000008 9.109390 -0.517781 2.259751 -248.718443 -11.515754 16.762727 3.700065 0.000247 -0.000441 -246.264410 -13.163085 20.075335 2.850060 0.000269 0.000237 -246.303670 -9.469221 14.451106 2.774890 -0.000045 -0.000025 0.000001 0.000001 -0.000001 9.533465 0.000288 -0.000075 -246.929152 -8.197628 12.362476 3.700059 0.000254 -0.000357 -245.651360 -9.332140 14.417802 2.950063 0.000278 -0.000184 -241.248784 -7.918358 13.341722 2.952867 -0.000046 0.000065 -0.000001 0.000000 -0.000001 9.104578 -0.042766 -1.865201 -242.872894 -6.582049 10.750831 3.150041 0.000297 -0.000080 -244.083913 -6.935286 11.062530 2.950004 0.000280 -0.000043 -240.616636 -6.198366 10.586674 2.644318 0.000030 0.000057 0.000001 0.000000 -0.000000 8.077843 -0.486588 -3.806384 -240.039622 -6.447428 12.049000 3.599976 0.000360 0.014597 -238.795353 -1.294481 3.070845 2.099999 0.000340 0.007604 -237.867321 0.474397 -0.127830 2.125513 -0.000031 0.007512 0.000001 -0.000001 -0.000001 -8.207786 -6.751667 -1.599560 -0.077001 -0.000003 0.000080 -0.000002 -44.370110 0.345938 0.153719 -0.000000 -0.000000 0.000000 -44.423679 -3.043532 -0.076700 0.000000 -0.000002 -0.000006 -8.728667 10.710559 -0.000009 -0.000000 -0.000000 -0.000001 -0.000679 9.278123 0.000000 -0.000000 -0.000000 8.207792 -6.751710 -1.599556 -0.074518 -0.000003 0.000081 -0.000002 -44.370014 0.346960 0.148822 0.000002 0.000000 -0.000001 -44.423664 -3.044403 -0.074314 0.000000 -0.000002 -0.000004 -8.728671 10.710558 0.000007 -0.000000 -0.000000 0.000000 -0.000680 9.278137 -0.000000 0.000000 -0.000001 
